<svg id="Layer_35" enable-background="new 0 0 64 64" height="512" viewBox="0 0 64 64" width="512" xmlns="http://www.w3.org/2000/svg"><circle cx="7" cy="60" r="3"/><circle cx="25" cy="60" r="3"/><path d="m6 57h1 18 1c1.302 0 2.402-.839 2.816-2h-25.632c.414 1.161 1.514 2 2.816 2z"/><path d="m21 15h2v6h-2z"/><path d="m16 41c-.551 0-1 .448-1 1v11h2v-11c0-.552-.449-1-1-1z"/><path d="m24 41c-.551 0-1 .448-1 1v11h2v-11c0-.552-.449-1-1-1z"/><path d="m5 11h22.001v2h-22.001z"/><path d="m7 24v1h18v-1c0-.552-.449-1-1-1h-16c-.551 0-1 .448-1 1z"/><path d="m9 15h2v6h-2z"/><path d="m8 41c-.551 0-1 .448-1 1v11h2v-11c0-.552-.449-1-1-1z"/><path d="m26 27h-1-18-1c-1.654 0-3 1.346-3 3v23h2v-11c0-1.654 1.346-3 3-3s3 1.346 3 3v11h2v-11c0-1.654 1.346-3 3-3s3 1.346 3 3v11h2v-11c0-1.654 1.346-3 3-3s3 1.346 3 3v11h2v-23c0-1.654-1.346-3-3-3zm1 7c0 1.654-1.346 3-3 3h-16c-1.654 0-3-1.346-3-3v-2c0-1.654 1.346-3 3-3h16c1.654 0 3 1.346 3 3z"/><path d="m24 31h-16c-.551 0-1 .448-1 1v2c0 .552.449 1 1 1h16c.551 0 1-.448 1-1v-2c0-.552-.449-1-1-1z"/><path d="m43.585 15.665c-1.621-1.077-2.821-2.731-3.322-4.665h-1.263c-1.654 0-3 1.346-3 3v7.038c1.881-2.512 4.518-4.427 7.585-5.373z"/><path d="m52.415 15.665c3.067.946 5.704 2.86 7.585 5.373v-7.038c0-1.654-1.346-3-3-3h-1.263c-.501 1.934-1.701 3.588-3.322 4.665z"/><path d="m58 21.705v7.295c0 .883-.391 1.67-1 2.22v7.78h1c1.654 0 3-1.346 3-3v-6c0-3.151-1.128-6.042-3-8.295z"/><circle cx="48" cy="9" r="6"/><path d="m45 17.363v.637c0 1.654 1.346 3 3 3s3-1.346 3-3v-.637c-.965-.229-1.966-.363-3-.363s-2.035.134-3 .363z"/><path d="m43 30c.551 0 1-.448 1-1v-8.031c-.619-.832-.999-1.852-1-2.966-1.084.453-2.088 1.056-3 1.772v9.225c0 .552.449 1 1 1z"/><path d="m52 20.969v8.031c0 .552.449 1 1 1h2c.551 0 1-.448 1-1v-9.226c-.912-.715-1.916-1.318-3-1.772-.001 1.115-.381 2.135-1 2.967z"/><path d="m38 21.705c-1.872 2.253-3 5.144-3 8.295v6c0 1.654 1.346 3 3 3h1v-7.78c-.609-.549-1-1.337-1-2.22z"/><path d="m50 29v-6.424c-.614.27-1.288.424-2 .424s-1.386-.154-2-.424v6.424c0 1.654-1.346 3-3 3h-2v26c0 1.654 1.346 3 3 3s3-1.346 3-3v-22h2v22c0 1.654 1.346 3 3 3s3-1.346 3-3v-26h-2c-1.654 0-3-1.346-3-3z"/></svg>